<svg width="76" height="73" viewBox="0 0 76 73" fill="none" xmlns="http://www.w3.org/2000/svg">
<path d="M48.9307 11.3169C48.8967 10.1185 48.6932 8.95401 48.3088 7.87998C47.1783 4.56745 44.6006 1.93325 41.3333 0.723556C40.0784 0.248722 38.7104 0 37.2859 0C35.8614 0 34.5048 0.248722 33.2385 0.723556C28.8067 2.37417 25.6299 6.65898 25.6299 11.6673C25.6299 18.1002 30.8531 23.3234 37.2859 23.3234C43.7188 23.3234 48.942 18.1002 48.942 11.6673C48.942 11.5543 48.942 11.4412 48.9307 11.3282V11.3169ZM37.2859 19.8752C32.7637 19.8752 29.0668 16.1896 29.0668 11.656C29.0668 7.1225 32.7524 3.42559 37.2859 3.42559C41.8195 3.42559 45.5051 7.1112 45.5051 11.656C45.5051 16.2009 41.8308 19.8752 37.2859 19.8752Z" fill="#E21D40"/>
<path d="M8.63745 0.712299C8.23045 0.63316 7.81214 0.599243 7.38253 0.599243C6.55723 0.599243 5.75453 0.73491 5.00836 0.994938C2.13675 1.97852 0.0565278 4.66925 0.0113056 7.85742H0V7.98178C0 10.6047 1.37928 12.911 3.43689 14.2111C4.57875 14.9347 5.92412 15.353 7.38253 15.353C7.49559 15.353 7.59734 15.353 7.71039 15.3417C8.96531 15.2852 10.1411 14.9234 11.1473 14.3129C13.318 13.0241 14.7538 10.6725 14.7538 7.98178C14.7538 4.35269 12.1083 1.31149 8.63745 0.712299ZM11.1473 9.14625C10.6725 10.6499 9.3384 11.7691 7.71039 11.8935C7.60864 11.9161 7.49559 11.9161 7.38253 11.9161C5.21187 11.9161 3.43689 10.1411 3.43689 7.97047C3.43689 5.7998 5.21187 4.02483 7.38253 4.02483C9.5532 4.02483 11.3282 5.7885 11.3282 7.97047C11.3282 8.36617 11.2716 8.76186 11.1586 9.13494L11.1473 9.14625Z" fill="#E21D40"/>
<path d="M75.6005 64.8375C75.5101 62.2711 74.1647 60.0213 72.1862 58.6872C71.0331 57.8958 69.6425 57.421 68.1614 57.3532C68.0371 57.3306 67.924 57.3306 67.7997 57.3306C66.7143 57.3306 65.6629 57.5567 64.7246 57.9637C61.9321 59.1508 59.9649 61.9319 59.9649 65.154C59.9649 69.4614 63.4696 72.9775 67.7884 72.9775C72.1071 72.9775 75.6118 69.4614 75.6118 65.154C75.6118 65.0523 75.6118 64.9392 75.5892 64.8375H75.6005ZM67.7997 69.5406C65.3803 69.5406 63.4131 67.5734 63.4131 65.154C63.4131 63.933 63.9219 62.8138 64.7359 62.0111C65.5386 61.2423 66.6126 60.7675 67.811 60.7675C67.9353 60.7675 68.0484 60.7675 68.1727 60.7901C70.4226 60.971 72.1975 62.859 72.1975 65.154C72.1975 67.5734 70.2304 69.5406 67.811 69.5406H67.7997Z" fill="#231F20"/>
<path d="M20.4972 16.5399H14.8783V13.103H18.7787V0.621704H22.2156V14.8215C22.2156 15.7712 21.4468 16.5399 20.4972 16.5399Z" fill="#231F20"/>
<path d="M75.6456 7.87988H47.0086V11.3168H75.6456V7.87988Z" fill="#E21D40"/>
<path d="M74.6508 4.14917H49.5073V0.71228H68.6589C71.2026 0.71228 73.4525 2.10286 74.6508 4.14917Z" fill="#231F20"/>
<path d="M75.6457 14.2676H52.4127V17.7045H75.6457V14.2676Z" fill="#231F20"/>
<path d="M75.623 21.2544H72.1862V32.5373H75.623V21.2544Z" fill="#E21D40"/>
<path d="M75.623 35.9291H72.1862V40.3835H75.623V35.9291Z" fill="#E21D40"/>
<path d="M75.623 43.6733H72.1862V64.8374H75.623V43.6733Z" fill="#231F20"/>
<path d="M68.1726 22.9616V60.8013C68.0483 60.7787 67.9352 60.7787 67.8108 60.7787C66.6238 60.7787 65.5384 61.2649 64.7357 62.0223V24.6801H50.6038C49.3036 24.6801 49.168 25.4828 49.168 25.8219C49.168 26.0254 49.2358 27.0429 50.6038 27.0429H59.4786C60.4283 27.0429 61.1971 27.8117 61.1971 28.7614V44.9962H57.7602V30.4798H50.6038C47.4382 30.4798 45.7311 28.0717 45.7311 25.8219C45.7311 23.5721 47.4043 21.2432 50.6038 21.2432H66.4542C67.4038 21.2432 68.1726 22.0119 68.1726 22.9616Z" fill="#231F20"/>
<path d="M61.2197 52.0735H55.3295C52.5258 52.0735 50.7056 50.1289 50.7056 47.1216V33.5323H54.1425V47.1216C54.1425 48.6366 54.8321 48.6366 55.3295 48.6366H61.2197V52.0735Z" fill="#231F20"/>
<path d="M26.9527 20.3613H14.867V23.7982H26.9527V20.3613Z" fill="#231F20"/>
<path d="M42.2039 27.043H14.867V30.4799H42.2039V27.043Z" fill="#231F20"/>
<path d="M25.6751 52.0961H22.2382V38.1563C22.2382 37.3649 21.8538 37.071 21.6503 36.9692H14.8783V33.5323L22.3287 33.5776C23.4931 33.8489 25.6864 35.1604 25.6864 38.1563V52.0961H25.6751Z" fill="#231F20"/>
<path d="M11.1587 9.14612V41.9323H7.7218V11.9047C9.3498 11.7803 10.6952 10.6611 11.1587 9.15742V9.14612Z" fill="#E21D40"/>
<path d="M3.44818 7.8573H0.0112915V33.7018H3.44818V7.8573Z" fill="#E21D40"/>
<path d="M47.7435 52.0961H44.3066V36.9692H42.4186V52.0848H34.0412V36.9692H32.0627V52.0961H28.6258V33.5323H37.478V48.6479H38.9817V33.5323H47.7435V52.0961Z" fill="#E21D40"/>
<path d="M56.3584 73H52.9215V58.6532H20.565C17.2185 58.6532 14.8783 56.1095 14.8783 52.4578V40.3834H18.3152V52.4578C18.3152 53.1022 18.4735 55.2163 20.565 55.2163H54.64C55.5896 55.2163 56.3584 55.9851 56.3584 56.9348V73Z" fill="#231F20"/>
<path d="M49.021 65.6175H14.3016C10.7969 65.6175 7.71045 62.6215 7.71045 59.1959V45.5049H11.1473V59.1959C11.1473 60.5413 12.5492 62.1806 14.3016 62.1806H49.021V65.6175Z" fill="#E21D40"/>
<path d="M49.021 69.5405H44.1823V72.9774H49.021V69.5405Z" fill="#231F20"/>
<path d="M40.2139 72.9774H8.45655C3.40296 72.9774 0.0112915 69.5292 0.0112915 64.3852V45.5049H3.44818V64.3852C3.44818 67.6073 5.32491 69.5405 8.45655 69.5405H40.2139V72.9774Z" fill="#231F20"/>
<path d="M3.44818 37.478H0.0112915V41.9324H3.44818V37.478Z" fill="#231F20"/>
</svg>
